<svg xmlns="http://www.w3.org/2000/svg" viewBox="0 0 200 240" fill="none" aria-hidden="true">
  <!-- Table -->
  <path d="M30 168 H170" stroke="#8D6E63" stroke-width="1.5" stroke-linecap="round"/>
  <path d="M45 168 V188 M155 168 V188" stroke="#8D6E63" stroke-width="1.5" stroke-linecap="round"/>
  <!-- Bowls -->
  <ellipse cx="75" cy="158" rx="16" ry="6" stroke="#8D6E63" stroke-width="1.2"/>
  <path d="M59 158 Q75 148 91 158" stroke="#8D6E63" stroke-width="1.2"/>
  <ellipse cx="125" cy="160" rx="14" ry="5" stroke="#8D6E63" stroke-width="1.2"/>
  <path d="M111 160 Q125 152 139 160" stroke="#8D6E63" stroke-width="1.2"/>
  <!-- Mother -->
  <circle cx="108" cy="72" r="14" stroke="#8D6E63" stroke-width="1.3"/>
  <path d="M108 86 C98 92 92 104 90 118 L90 168" stroke="#8D6E63" stroke-width="1.3" stroke-linecap="round"/>
  <path d="M90 118 C82 112 78 118 76 128" stroke="#8D6E63" stroke-width="1.2" stroke-linecap="round"/>
  <path d="M90 118 C100 115 108 118 112 130 L118 150" stroke="#8D6E63" stroke-width="1.2" stroke-linecap="round"/>
  <path d="M104 78 C112 74 118 78 120 84" stroke="#8D6E63" stroke-width="1" stroke-linecap="round"/>
  <!-- Child on stool -->
  <rect x="58" y="148" width="22" height="6" rx="2" stroke="#8D6E63" stroke-width="1.2"/>
  <path d="M64 154 V168 M74 154 V168" stroke="#8D6E63" stroke-width="1.2"/>
  <circle cx="69" cy="108" r="10" stroke="#8D6E63" stroke-width="1.2"/>
  <path d="M69 118 C62 124 58 136 56 148" stroke="#8D6E63" stroke-width="1.2" stroke-linecap="round"/>
  <path d="M56 148 C64 142 72 142 78 148" stroke="#8D6E63" stroke-width="1.2" stroke-linecap="round"/>
  <path d="M56 132 L68 126" stroke="#8D6E63" stroke-width="1.2" stroke-linecap="round"/>
  <!-- Utensil -->
  <path d="M118 148 L128 132" stroke="#8D6E63" stroke-width="1.2" stroke-linecap="round"/>
  <circle cx="130" cy="130" r="3" stroke="#8D6E63" stroke-width="1"/>
</svg>
