<svg xmlns="http://www.w3.org/2000/svg" viewBox="0 0 500 400" fill="none">
  <rect width="500" height="400" rx="24" fill="#F5EDE0"/>
  <ellipse cx="250" cy="280" rx="120" ry="40" fill="#1B4332" opacity="0.1"/>
  <path d="M250 80 C180 80 130 130 130 200 C130 270 250 320 250 320 C250 320 370 270 370 200 C370 130 320 80 250 80Z" fill="#8B6914" stroke="#1B4332" stroke-width="3"/>
  <circle cx="200" cy="180" r="6" fill="#D4A843"/>
  <circle cx="230" cy="160" r="5" fill="#C49A38"/>
  <circle cx="260" cy="190" r="6" fill="#E6BE5A"/>
  <circle cx="290" cy="170" r="5" fill="#D4A843"/>
  <circle cx="310" cy="200" r="6" fill="#C49A38"/>
  <circle cx="220" cy="210" r="5" fill="#E6BE5A"/>
  <circle cx="280" cy="220" r="5" fill="#D4A843"/>
  <line x1="380" y1="120" x2="420" y2="60" stroke="#2D6A4F" stroke-width="3"/>
  <line x1="400" y1="100" x2="440" y2="80" stroke="#2D6A4F" stroke-width="2"/>
  <line x1="390" y1="140" x2="430" y2="130" stroke="#2D6A4F" stroke-width="2"/>
</svg>
